<svg data-v-0dd9719b="" version="1.0" xmlns="http://www.w3.org/2000/svg" xmlns:xlink="http://www.w3.org/1999/xlink" width="100%" height="100%" viewBox="0 0 200.000000 100.000000" preserveAspectRatio="xMidYMid meet" color-interpolation-filters="sRGB" style="margin: auto;">  <!----> <g data-v-0dd9719b="" fill="#3699ea" class="icon-text-wrapper icon-svg-group iconsvg" transform="translate(10,20)"><g class="iconsvg-imagesvg" transform="translate(0,4.33160400390625)"><g><rect fill="#3699ea" fill-opacity="0" stroke-width="2" x="0" y="0" width="60" height="56.644921310763486" class="image-rect"></rect> <svg x="0" y="0" width="60" height="56.644921310763486" filtersec="colorsb8104692896" class="image-svg-svg primary" style="overflow: visible;"><svg xmlns="http://www.w3.org/2000/svg" viewBox="-0.003525275969877839 -0.0038033658638596535 264.3553466796875 249.5738983154297"><g><g fill="#3699ea"><path d="M88.26 14.26a19 19 0 0 0 18.69 5.47l65.67-17a1.38 1.38 0 0 0-.37-2.73L87.36 1a5 5 0 0 0-3.63 8.44zM204.69 14.78a10.81 10.81 0 0 0-14-7l-65.62 23.58a5.34 5.34 0 0 0-.92 9.62l98.48 58.41a4.39 4.39 0 0 0 6.43-5.06zM103 177.28a6.6 6.6 0 0 0 9.88 5.69l99.32-57.07.09-.05a6.62 6.62 0 0 0 .08-11.44L112.1 54.94a6.42 6.42 0 0 0-9.7 5.55zM263.73 136.83a5.62 5.62 0 0 0-5.94-8.11 18.67 18.67 0 0 0-14.57 12.6l-27.67 85.05a.92.92 0 0 0 1.69.7zM258.31 113.62a4.34 4.34 0 0 0 4.7-6.3L217.6 22.4a.76.76 0 0 0-1.39.63L246 103.09a16.74 16.74 0 0 0 12.31 10.53zM75.55 180.29a5.87 5.87 0 0 0 9.24-4.84l-.53-112.18A5.5 5.5 0 0 0 75.34 59L3.2 116.43A8.46 8.46 0 0 0 3.62 130zM2.32 99.68a1.64 1.64 0 0 0 2.53 2l66.77-62a11.35 11.35 0 0 0 .6-16l-7.49-8.08A8.45 8.45 0 0 0 51.25 17zM107.85 219.33a15.23 15.23 0 0 0-17.45 5.08l-10.09 13.38a5.83 5.83 0 0 0 4.51 9.35l93.49 2.43a1.9 1.9 0 0 0 .71-3.67zM226.49 147.65a4.73 4.73 0 0 0-6.94-5.3l-95.85 55.31a5.83 5.83 0 0 0 .5 10.36l66.92 30.4a9.55 9.55 0 0 0 13.2-6.28zM74.21 215.48a11.75 11.75 0 0 0-2.06-16.19L6 146.19a2.07 2.07 0 0 0-3.08 2.67l47.64 80.84a7.54 7.54 0 0 0 12.54.68z"></path></g></g></svg></svg> <!----></g></g> <g transform="translate(67,0)"><g data-gra="path-name" fill-rule="" class="tp-name iconsvg-namesvg" transform="translate(0,0)"><g transform="scale(1)"><g><path d="M19.01-1.18L19.01-1.18 20.41-1.24Q27.98-1.29 40.77-2.2L40.77-2.2 38.13-4.19Q37.22-4.89 37.22-5.53L37.22-5.53Q37.22-7.04 39.26-7.04L39.26-7.04Q40.66-7.04 47.7-1.99L47.7-1.99Q51.94 1.45 51.94 2.47L51.94 2.47Q51.94 4.4 49.58 4.4L49.58 4.4Q48.45 4.4 44.74 1.13L44.74 1.13 44.58 1.02 39.05 1.61Q28.95 2.58 11.87 3.12L11.87 3.12 6.61 3.38Q4.03 3.38 4.03 1.13L4.03 1.13Q4.03-0.21 4.94-0.64L4.94-0.64Q5.69-1.02 11.92-1.02L11.92-1.02 13.96-1.07Q16.44-4.78 17.89-7.68L17.89-7.68 4.78-7.68Q2.58-7.68 2.58-9.61L2.58-9.61Q2.58-11.49 4.78-11.49L4.78-11.49 50.27-11.49Q52.48-11.49 52.48-9.56L52.48-9.56Q52.48-7.68 50.27-7.68L50.27-7.68 23.42-7.68Q22.24-5.42 19.01-1.18ZM8.22-37.11L25.3-37.11 25.3-40.23 8.7-40.23Q6.5-40.23 6.5-42.11 6.5-43.99 8.7-43.99L8.7-43.99 46.41-43.99Q48.55-43.99 48.55-42.11 48.55-40.23 46.41-40.23L46.41-40.23 29.33-40.23 29.33-37.11 46.78-37.11Q52.1-37.38 51.72-32.17L51.72-32.17 51.72-24.98Q51.72-22.67 49.63-22.67L49.63-22.67Q47.48-22.67 47.48-24.98L47.48-24.98 47.48-31.42Q47.43-33.57 45.28-33.62L45.28-33.62 29.33-33.62 29.33-22.13Q29.33-20.09 27.29-20.09L27.29-20.09Q25.3-20.09 25.3-22.13L25.3-22.13 25.3-33.62 9.72-33.62Q7.57-33.57 7.52-31.42L7.52-31.42 7.52-24.71Q7.52-22.4 5.37-22.4L5.37-22.4Q3.28-22.4 3.28-24.71L3.28-24.71 3.28-32.17Q2.95-37.38 8.22-37.11L8.22-37.11ZM45.6-14.93L9.45-14.93Q7.3-14.93 7.3-16.81 7.3-18.69 9.45-18.69L9.45-18.69 45.6-18.69Q47.75-18.69 47.75-16.81 47.75-14.93 45.6-14.93L45.6-14.93ZM21.48-21.91L11.33-21.91Q9.61-21.91 9.61-23.47 9.61-25.03 11.33-25.03L11.33-25.03 21.48-25.03Q23.2-25.03 23.2-23.47 23.2-21.91 21.48-21.91L21.48-21.91ZM21.48-27.88L11.33-27.88Q9.61-27.88 9.61-29.43 9.61-30.99 11.33-30.99L11.33-30.99 21.48-30.99Q23.2-30.99 23.2-29.43 23.2-27.88 21.48-27.88L21.48-27.88ZM43.72-21.91L33.19-21.91Q31.47-21.91 31.47-23.47 31.47-25.03 33.19-25.03L33.19-25.03 43.72-25.03Q45.44-25.03 45.44-23.47 45.44-21.91 43.72-21.91L43.72-21.91ZM43.72-27.88L33.19-27.88Q31.42-27.88 31.42-29.43 31.42-30.99 33.19-30.99L33.19-30.99 43.72-30.99Q45.44-30.99 45.44-29.43 45.44-27.88 43.72-27.88L43.72-27.88ZM104.74-20.03L92.06-20.03 92.06-2.79 103.66-2.79Q106.24-2.79 106.24-0.48L106.24-0.48Q106.24 1.77 103.66 1.77L103.66 1.77 75.84 1.77Q73.32 1.77 73.32-0.48L73.32-0.48Q73.32-2.79 75.84-2.79L75.84-2.79 87.28-2.79 87.28-20.03 74.6-20.03Q71.81-20.03 71.81-22.34 71.81-24.65 74.6-24.65L74.6-24.65 87.28-24.65 87.28-37.44 76-36.2Q73.48-36.2 73.48-38.4L73.48-38.4Q73.48-40.44 75.89-40.82L75.89-40.82 80.46-41.3Q91.95-42.27 101.08-44.85L101.08-44.85 102.37-45.06Q104.74-45.06 104.74-42.54L104.74-42.54Q104.74-41.36 103.37-40.63 102-39.91 92.22-38.19L92.22-38.19 92.06-38.19 92.06-24.65 104.74-24.65Q107.58-24.65 107.58-22.34 107.58-20.03 104.74-20.03L104.74-20.03ZM69.18-33.52L69.13-33.3 69.13 1.67Q69.13 4.4 66.87 4.4 64.61 4.4 64.61 1.67L64.61 1.67 64.61-24.33Q60.96-17.29 59.24-17.29L59.24-17.29Q57.2-17.29 57.2-19.87L57.2-19.87Q57.2-20.79 58.97-23.58L58.97-23.58Q64.56-32.44 68.16-43.4L68.16-43.4Q68.96-46.19 70.79-46.19L70.79-46.19Q73.42-46.19 73.42-43.99L73.42-43.99Q73.42-42.92 69.18-33.52L69.18-33.52Z" transform="translate(-2.5799999237060547, 46.189998626708984)"></path></g> <!----> <!----> <!----> <!----> <!----> <!----> <!----></g></g> <g data-gra="path-slogan" fill-rule="" class="tp-slogan iconsvg-slogansvg" fill="#3699ea" transform="translate(26.154998779296875,56.59000015258789)"><!----> <!----> <g transform="scale(1, 1)"><g transform="scale(1)"><path d="M7.83-8.58L4.59-3.47L4.59 0L3.42 0L3.42-3.47L0.19-8.58L1.55-8.58L3.98-4.45L6.47-8.58L7.83-8.58ZM14.53-3.19L14.53-8.58L15.70-8.58L15.70-3.05Q15.56 0.05 12.19 0.14L12.19 0.14Q9.05 0.05 8.91-2.86L8.91-2.86L8.91-8.58L10.08-8.58L10.08-3.19Q10.13-0.84 12.23-0.80L12.23-0.80Q14.53-0.84 14.53-3.19L14.53-3.19ZM18.89-8.58L23.20-1.64L23.20-8.58L24.33-8.58L24.33 0L23.02 0L18.66-6.94L18.61-6.94L18.61 0L17.48 0L17.48-8.58L18.89-8.58ZM33.56-3.70L30.75-3.70L30.75 0L29.58 0L29.58-8.58L33.56-8.58Q36.42-8.58 36.42-6.28L36.42-6.28Q36.42-4.88 35.20-4.22L35.20-4.22Q36.23-3.94 36.23-2.58L36.23-2.58L36.33-1.03Q36.28-0.38 36.75-0.19L36.75-0.19L36.75 0L35.30 0Q35.16-0.61 35.11-2.16L35.11-2.16Q35.16-3.70 33.56-3.70L33.56-3.70ZM33.66-7.64L30.75-7.64L30.75-4.69L33.47-4.69Q35.20-4.69 35.20-6.19L35.20-6.19Q35.20-7.64 33.66-7.64L33.66-7.64ZM39.38-1.03L44.53-1.03L44.53 0L38.20 0L38.20-8.58L44.44-8.58L44.44-7.59L39.38-7.59L39.38-4.92L44.06-4.92L44.06-3.89L39.38-3.89L39.38-1.03ZM47.44-8.58L51.75-1.64L51.75-8.58L52.88-8.58L52.88 0L51.56 0L47.20-6.94L47.16-6.94L47.16 0L46.03 0L46.03-8.58L47.44-8.58Z" transform="translate(-0.1875, 8.578125)"></path></g></g></g></g></g><defs v-gra="od"></defs></svg>