<?xml version="1.0" standalone="no"?><!DOCTYPE svg PUBLIC "-//W3C//DTD SVG 1.1//EN" "http://www.w3.org/Graphics/SVG/1.1/DTD/svg11.dtd"><svg t="1714702250411" class="icon" viewBox="0 0 1024 1024" version="1.1" xmlns="http://www.w3.org/2000/svg" p-id="5804" xmlns:xlink="http://www.w3.org/1999/xlink" width="200" height="200"><path d="M553.386667 115.2512l70.485333 143.36a153.2928 153.2928 0 0 0 115.4048 84.206933l157.610667 22.9888c43.810133 6.4 61.303467 60.501333 29.627733 91.511467l-114.0224 111.616a154.231467 154.231467 0 0 0-44.066133 136.2432l26.914133 157.610667c7.509333 43.810133-38.331733 77.2608-77.5168 56.576l-140.970667-74.410667a152.7808 152.7808 0 0 0-142.6432 0l-140.970666 74.410667c-39.185067 20.6848-85.009067-12.714667-77.499734-56.576l26.897067-157.610667a154.487467 154.487467 0 0 0-44.066133-136.226133L84.48 457.3696c-31.744-31.061333-14.199467-85.111467 29.627733-91.511467l157.5936-22.9888a153.1904 153.1904 0 0 0 115.4048-84.206933l70.485334-143.36c19.592533-39.901867 76.219733-39.901867 95.812266-0.0512z" fill="#257AE7" p-id="5805"></path><path d="M896.887467 365.858133l-157.610667-22.9888a153.1904 153.1904 0 0 1-115.4048-84.206933l-70.485333-143.36c-19.592533-39.901867-76.219733-39.901867-95.812267 0l-70.485333 143.36a153.2928 153.2928 0 0 1-115.4048 84.206933l-157.5936 22.9888c-43.8272 6.4-61.303467 60.484267-29.627734 91.511467l114.005334 111.616a154.231467 154.231467 0 0 1 44.066133 136.2432l-26.897067 157.610667c-1.911467 11.264-0.290133 21.845333 3.771734 30.958933a639.317333 639.317333 0 0 0 113.493333 4.590933l101.1712-53.418666a152.746667 152.746667 0 0 1 133.888-4.266667 643.0208 643.0208 0 0 0 199.236267-143.394133A154.248533 154.248533 0 0 1 812.373333 569.002667l87.688534-85.845334a635.392 635.392 0 0 0 28.194133-100.676266 51.746133 51.746133 0 0 0-31.402667-16.622934z" fill="#5195EC" p-id="5806"></path><path d="M242.500267 705.757867c219.613867-24.576 411.921067-162.338133 506.197333-361.557334l-9.4208-1.365333a153.1904 153.1904 0 0 1-115.4048-84.224l-70.485333-143.36c-19.592533-39.901867-76.219733-39.901867-95.812267 0l-70.485333 143.36a153.2928 153.2928 0 0 1-115.4048 84.206933l-157.5936 22.9888c-43.8272 6.4-61.303467 60.501333-29.627734 91.511467l114.005334 111.616a154.231467 154.231467 0 0 1 44.066133 136.2432l-0.034133 0.580267z" fill="#7CAFF0" p-id="5807"></path><path d="M592.861867 195.584l-39.4752-80.2816c-19.592533-39.901867-76.219733-39.901867-95.812267 0l-70.485333 143.36a153.2928 153.2928 0 0 1-115.4048 84.206933l-157.5936 22.9888c-43.8272 6.4-61.303467 60.484267-29.627734 91.511467l68.386134 66.935467c188.654933-36.010667 351.7952-157.6448 440.0128-328.704z" fill="#A9CAF6" p-id="5808"></path><path d="M611.7888 546.389333c-4.096 19.746133-8.123733 38.0416-11.758933 56.439467-2.679467 13.568-2.474667 13.704533-15.7184 14.523733-6.212267 0.392533-12.424533 0.341333-18.602667 0.512-6.673067 0.256-6.109867-3.959467-5.154133-8.448l14.062933-67.3792c7.594667-36.4032 15.189333-72.823467 22.971733-110.336 19.592533 0 39.048533-0.136533 58.504534 0.0512 10.359467 0.1024 20.736 0.290133 31.061333 1.092267 33.792 2.679467 46.353067 29.354667 40.7552 57.736533-7.304533 37.085867-30.583467 55.125333-69.768533 55.722667-15.189333 0.273067-30.344533 0.085333-46.353067 0.085333z m5.973333-29.952c15.018667-0.853333 28.808533-1.672533 42.632534-2.440533 11.264-0.631467 19.677867-6.4 25.8048-15.394133 9.9328-14.626133 4.061867-34.013867-11.195734-35.208534-15.0016-1.194667-30.208-0.238933-45.960533-0.238933-3.6352 17.152-7.2192 34.2528-11.281067 53.282133z m-132.7104-84.343466c-17.7664 32.529067-34.304 62.788267-50.7904 93.0816-14.9504 27.426133-30.1568 54.715733-44.578133 82.432-4.266667 8.174933-9.847467 10.752-18.397867 10.274133-8.840533-0.477867-17.681067-0.1024-28.0064-0.1024-10.939733-61.5936-21.930667-123.1872-33.109333-186.077867 12.270933 0 23.159467-0.375467 34.013867 0.392534 2.013867 0.136533 4.727467 4.864 5.256533 7.8336 3.6352 19.9168 6.741333 39.936 10.0352 59.904 3.822933 23.1936 7.68 46.318933 11.946667 71.9872 7.850667-14.301867 14.626133-26.5728 21.316266-38.912 17.493333-32.1536 34.884267-64.3584 52.650667-96.324267 1.245867-2.304 5.2224-4.113067 8.021333-4.266667 9.898667-0.5632 19.899733-0.238933 31.6416-0.238933z m-11.178666 184.7296c12.9536-62.395733 25.668267-123.477333 38.468266-185.224534 10.8032 0 20.7872 0.0512 30.8224 0 6.314667-0.034133 6.4512 3.6864 5.461334 8.362667-4.744533 22.698667-9.472 45.448533-14.165334 68.1984-7.304533 35.2768-14.557867 70.536533-21.879466 105.813333-0.238933 1.092267-0.768 2.133333-1.041067 2.850134h-37.666133z m177.664 90.897066H359.389867a13.653333 13.653333 0 0 1-13.653334-13.653333v-8.1408a13.653333 13.653333 0 0 1 13.653334-13.653333h292.181333a13.653333 13.653333 0 0 1 13.653333 13.653333v8.123733a13.653333 13.653333 0 0 1-13.653333 13.653334z" fill="#FFFFFF" p-id="5809"></path></svg>